<svg width="252" height="76" viewBox="0 0 252 76" fill="none" xmlns="http://www.w3.org/2000/svg">
<path d="M77.4144 57.7583C77.4144 47.9051 77.4144 38.0519 77.4144 28.2239C77.3892 28.2239 77.364 28.1987 77.3136 28.1987C77.238 28.3499 77.1624 28.5011 77.0868 28.6271C72.8784 38.1779 68.67 47.7287 64.4616 57.2795C64.2852 57.6575 64.1088 57.8087 63.7056 57.7835C63.1008 57.7331 62.496 57.7583 61.8912 57.7835C61.488 57.8087 61.3116 57.6575 61.1604 57.3047C59.1696 52.7183 57.1536 48.1319 55.1376 43.5455C52.9704 38.6063 50.8032 33.6671 48.636 28.7027C48.5604 28.5515 48.4848 28.4003 48.3084 28.2491C48.3084 28.4255 48.3084 28.6019 48.3084 28.7531C48.3084 38.1275 48.3084 47.5271 48.3084 56.9015C48.3084 57.0527 48.3084 57.1787 48.3084 57.3299C48.3336 57.6323 48.2328 57.7583 47.9052 57.7583C46.9476 57.7331 46.0152 57.7331 45.0576 57.7583C44.7804 57.7583 44.6796 57.6575 44.7048 57.4055C44.7048 57.3047 44.7048 57.1787 44.7048 57.0779C44.7048 44.1755 44.7048 31.2479 44.7048 18.3455C44.7048 18.1439 44.7048 17.9423 44.7048 17.6903C44.9064 17.6903 45.0576 17.6651 45.2088 17.6651C47.2752 17.6651 49.3668 17.6651 51.4332 17.6651C51.786 17.6651 51.9624 17.7911 52.0884 18.1187C56.2968 27.6191 60.48 37.1195 64.6884 46.5947C64.764 46.7459 64.8396 46.8971 64.9404 47.1491C65.0412 46.9727 65.1168 46.8467 65.1672 46.6955C69.3504 37.2203 73.5336 27.7199 77.7168 18.2195C77.9184 17.7659 78.1452 17.6399 78.624 17.6399C80.5896 17.6651 82.5552 17.6651 84.5208 17.6651C84.6972 17.6651 84.8988 17.6651 85.1256 17.6651C85.1508 17.8667 85.1508 18.0431 85.1508 18.1943C85.1508 31.1975 85.1508 44.2007 85.1508 57.2039C85.1508 57.6323 85.0248 57.7583 84.5964 57.7583C82.3536 57.7331 80.1108 57.7583 77.8428 57.7583C77.7672 57.7835 77.616 57.7583 77.4144 57.7583Z" fill="black"/>
<path d="M225.238 57.7584C222.617 57.7584 220.072 57.7584 217.501 57.7584C217.501 44.4024 217.501 31.0716 217.501 17.7156C220.072 17.7156 222.617 17.7156 225.238 17.7156C225.238 23.436 225.238 29.1564 225.238 34.902C231.21 34.902 237.132 34.902 243.13 34.902C243.13 29.1816 243.13 23.4612 243.13 17.7156C245.725 17.7156 248.296 17.7156 250.866 17.7156C250.866 31.0716 250.866 44.4024 250.866 57.7332C248.296 57.7332 245.725 57.7332 243.13 57.7332C243.13 51.3324 243.13 44.9568 243.13 38.556C237.157 38.556 231.235 38.556 225.263 38.556C225.238 44.9568 225.238 51.3324 225.238 57.7584Z" fill="black"/>
<path d="M162.893 43.7724C162.893 35.1036 162.893 26.4348 162.893 17.7156C164.203 17.7156 165.463 17.7156 166.774 17.7156C166.774 31.0464 166.774 44.3772 166.774 57.7584C165.892 57.7584 165.01 57.7836 164.153 57.7332C164.027 57.7332 163.876 57.5064 163.75 57.3552C158.836 50.9292 153.947 44.478 149.033 38.052C145.908 33.9444 142.758 29.8368 139.633 25.704C139.532 25.578 139.432 25.4772 139.255 25.2504C139.255 35.8344 139.255 46.2924 139.255 56.7756C138.046 56.7756 136.861 56.7756 135.677 56.7756C135.677 43.7472 135.677 30.7188 135.677 17.6652C135.878 17.6652 136.03 17.6652 136.206 17.6652C138.348 17.6652 140.49 17.6652 142.607 17.6652C143.01 17.6652 143.237 17.7912 143.464 18.0936C149.789 26.5356 156.114 34.9776 162.439 43.3944C162.54 43.5204 162.641 43.6716 162.767 43.7976C162.817 43.7976 162.868 43.7976 162.893 43.7724Z" fill="black"/>
<path d="M108.032 28.7531C107.528 29.9879 107.05 31.1471 106.596 32.3063C105.739 34.4483 104.857 36.5651 104.026 38.7071C101.632 44.9063 99.2628 51.1055 96.894 57.3047C96.768 57.6575 96.6168 57.7835 96.2136 57.7835C95.0544 57.7583 93.8952 57.7835 92.736 57.7835C92.5848 57.7835 92.4336 57.7583 92.2068 57.7583C92.5344 56.9771 92.8116 56.2463 93.114 55.5407C98.2548 43.0919 103.421 30.6683 108.536 18.2195C108.713 17.7911 108.914 17.6399 109.368 17.6903C109.847 17.7155 110.351 17.7155 110.83 17.6903C111.233 17.6651 111.434 17.7911 111.586 18.1943C113.904 23.6627 116.248 29.1311 118.591 34.6247C121.817 42.1595 125.042 49.7195 128.268 57.2543C128.344 57.4055 128.394 57.5819 128.47 57.7583C128.293 57.7583 128.167 57.7835 128.016 57.7835C125.496 57.7835 122.976 57.7835 120.456 57.7835C120.128 57.7835 119.952 57.6827 119.826 57.3551C118.314 53.6255 116.752 49.9211 115.24 46.1915C114.282 43.8731 113.4 41.5295 112.442 39.2111C111.056 35.8343 109.62 32.4827 108.209 29.1311C108.184 29.0303 108.133 28.9295 108.032 28.7531Z" fill="black"/>
<path d="M210.118 57.7835C209.74 57.7835 209.412 57.7835 209.11 57.7835C206.766 57.7835 204.422 57.7835 202.079 57.7835C201.751 57.7835 201.6 57.6827 201.499 57.3803C199.962 53.6255 198.4 49.8959 196.862 46.1411C195.93 43.8479 195.048 41.5043 194.09 39.2111C192.679 35.8343 191.243 32.4575 189.832 29.0807C189.806 29.0051 189.756 28.9043 189.68 28.7531C189.58 28.9799 189.504 29.1311 189.454 29.3075C188.194 32.4323 186.883 35.5571 185.674 38.7071C183.28 44.9063 180.911 51.1055 178.542 57.3047C178.391 57.6827 178.24 57.8087 177.836 57.8087C176.551 57.7835 175.241 57.8087 173.905 57.8087C173.956 57.6575 173.981 57.5315 174.031 57.4307C179.449 44.3267 184.892 31.2227 190.31 18.0935C190.436 17.7911 190.588 17.6903 190.915 17.7155C191.47 17.7407 192.024 17.7407 192.578 17.7155C193.007 17.6903 193.183 17.8667 193.334 18.2447C196.333 25.2755 199.332 32.3063 202.331 39.3119C204.901 45.3095 207.446 51.3071 210.017 57.3047C209.992 57.4055 210.042 57.5567 210.118 57.7835Z" fill="black"/>
<path d="M37.3968 57.8844C36.4896 57.8844 35.658 57.8844 34.8012 57.8844C32.9868 57.8844 31.1976 57.8844 29.3832 57.8844C29.0556 57.8844 28.8792 57.8088 28.7532 57.4812C27.216 53.7516 25.6788 50.022 24.1416 46.2672C23.2092 43.974 22.302 41.6304 21.3696 39.3372C19.9584 35.9604 18.522 32.5836 17.1108 29.2068C17.0604 29.106 17.01 29.0052 16.9344 28.854C16.8336 29.0808 16.758 29.232 16.6824 29.4084C15.4224 32.5332 14.112 35.658 12.9024 38.808C10.5084 45.0072 8.13956 51.2064 5.77076 57.4056C5.61956 57.7836 5.44316 57.9096 5.06516 57.8844C3.77996 57.8592 2.46956 57.8844 1.10876 57.8844C1.20956 57.6324 1.25996 57.456 1.33556 57.2796C6.70316 44.2512 12.096 31.248 17.4636 18.2448C17.6148 17.9172 17.766 17.7408 18.144 17.7912C18.6984 17.8416 19.2528 17.8164 19.8072 17.7912C20.16 17.766 20.3364 17.892 20.4624 18.2196C22.3524 22.68 24.2676 27.1404 26.1576 31.6008C29.8368 40.194 33.4908 48.7872 37.17 57.3804C37.2456 57.5064 37.296 57.6576 37.3968 57.8844Z" fill="black"/>
</svg>
